HIERARCHY
ROOT Hips
{
  OFFSET 267.745 86.9975 -272.335
  CHANNELS 6 Xposition Yposition Zposition Zrotation Xrotation Yrotation
  JOINT LeftUpLeg
  {
    OFFSET 8.64259 1.95398 -2.38835
    CHANNELS 3 Zrotation Xrotation Yrotation
    JOINT LeftLeg
    {
      OFFSET 43.7702 0 0
      CHANNELS 3 Zrotation Xrotation Yrotation
      JOINT LeftFoot
      {
        OFFSET 40.6238 0 0
        CHANNELS 3 Zrotation Xrotation Yrotation
        JOINT LeftToeBase
        {
          OFFSET 12.7242 0 0
          CHANNELS 3 Zrotation Xrotation Yrotation
          End Site
          {
            OFFSET 0 0 0
          }
        }
      }
    }
  }
  JOINT RightUpLeg
  {
    OFFSET -8.2249 1.95398 -2.59336
    CHANNELS 3 Zrotation Xrotation Yrotation
    JOINT RightLeg
    {
      OFFSET 43.5653 0 0
      CHANNELS 3 Zrotation Xrotation Yrotation
      JOINT RightFoot
      {
        OFFSET 40.6238 0 0
        CHANNELS 3 Zrotation Xrotation Yrotation
        JOINT RightToeBase
        {
          OFFSET 12.7242 0 0
          CHANNELS 3 Zrotation Xrotation Yrotation
          End Site
          {
            OFFSET 0 0 0
          }
        }
      }
    }
  }
  JOINT Spine
  {
    OFFSET 0.165834 0.87714 6.61349
    CHANNELS 3 Zrotation Xrotation Yrotation
    JOINT Spine1
    {
      OFFSET 7.38963 1.71661e-005 0
      CHANNELS 3 Zrotation Xrotation Yrotation
      JOINT Spine2
      {
        OFFSET 11.9445 1.14441e-005 0
        CHANNELS 3 Zrotation Xrotation Yrotation
        JOINT Spine3
        {
          OFFSET 14.7254 4.19617e-005 0
          CHANNELS 3 Zrotation Xrotation Yrotation
          JOINT Spine4
          {
            OFFSET 10.9679 0 0
            CHANNELS 3 Zrotation Xrotation Yrotation
            JOINT RightShoulder
            {
              OFFSET 2.46616 -1.6653 3.69651
              CHANNELS 3 Zrotation Xrotation Yrotation
              JOINT RightArm
              {
                OFFSET 13.0012 0 0
                CHANNELS 3 Zrotation Xrotation Yrotation
                JOINT RightForeArm
                {
                  OFFSET 28.7848 1.52588e-005 0
                  CHANNELS 3 Zrotation Xrotation Yrotation
                  JOINT RightHand
                  {
                    OFFSET 26.5688 1.52588e-005 0
                    CHANNELS 3 Zrotation Xrotation Yrotation
                    End Site
                    {
                      OFFSET 0 0 0
                    }
                  }
                }
              }
            }
            JOINT LeftShoulder
            {
              OFFSET 2.38034 -1.29275 -3.7523
              CHANNELS 3 Zrotation Xrotation Yrotation
              JOINT LeftArm
              {
                OFFSET 16.3182 6.10352e-005 0
                CHANNELS 3 Zrotation Xrotation Yrotation
                JOINT LeftForeArm
                {
                  OFFSET 27.0901 0 0
                  CHANNELS 3 Zrotation Xrotation Yrotation
                  JOINT LeftHand
                  {
                    OFFSET 24.5451 1.52588e-005 0
                    CHANNELS 3 Zrotation Xrotation Yrotation
                    End Site
                    {
                      OFFSET 0 0 0
                    }
                  }
                }
              }
            }
            JOINT Neck
            {
              OFFSET 5.0226 -0.0266342 0
              CHANNELS 3 Zrotation Xrotation Yrotation
              JOINT Head
              {
                OFFSET 6.69364 2.86102e-005 0
                CHANNELS 3 Zrotation Xrotation Yrotation
                End Site
                {
                  OFFSET 0 0 0
                }
              }
            }
          }
        }
      }
    }
  }
}
MOTION
Frames:	6
Frame Time:	0.0416667
-4.10826 36.3262 -10.6013 168.089 -69.0679 165.86 168.421 74.5833 111.701 -151.658 20.3111 1.6659 73.3798 9.35479 4.25712 61.9205 -2.3065 8.00162 -159.971 70.4693 41.2777 -151.351 -29.6716 -2.39598 80.3416 -18.1496 -4.45337 59.6698 -7.71793 -0.239823 0.323699 12.664 -90.5405 1.54644 0.439649 -1.04093 -10.1249 0.393424 -1.05927 -32.6582 0.732161 -0.860697 -12.6455 0.732164 -0.860691 98.1565 -32.5014 -90.1027 10.4716 -29.3694 -50.7985 -48.3342 -5.68623 -68.2763 -7.067 -0.739582 7.50129 -85.8216 -28.2359 80.7209 -21.9033 18.9869 -66.2128 41.0999 22.75 -65.797 -15.9763 0.309789 -7.72513 24.1868 -0.95795 13.2631 -3.22207 -5.64187 -12.7957 
-4.1437 36.3487 -10.6754 167.706 -69.1631 165.625 167.72 74.7061 112.395 -151.582 20.0423 1.66518 73.5921 9.55895 4.12999 62.0237 -2.34462 7.81043 -160.426 70.9811 41.6608 -151.266 -29.4309 -2.43716 79.7787 -17.7742 -4.61606 60.004 -7.65627 0.452276 0.330787 12.6922 -90.5553 1.49017 0.448422 -1.06915 -10.1812 0.400928 -1.08786 -32.7143 0.748998 -0.884981 -12.7017 0.748996 -0.884984 98.4344 -32.3222 -89.5726 8.8162 -30.6758 -51.6503 -52.4008 -6.19822 -68.7614 -8.43328 -1.02541 9.47042 -85.7421 -28.0029 80.8236 -21.4265 19.0719 -66.3779 40.926 22.0421 -66.1358 -16.4102 0.202351 -6.75177 23.3828 -1.28979 13.1067 -2.28528 -5.91646 -12.7504 
-4.24546 36.2342 -10.8155 167.748 -68.961 165.629 167.587 74.5778 112.421 -151.653 19.6369 1.67856 74.2125 9.83501 3.56383 61.6945 -2.20967 8.50373 -162.129 70.606 43.2344 -151.462 -29.2455 -2.41737 81.775 -19.448 -4.41585 57.9229 -7.40256 -0.937994 0.319233 12.75 -90.5511 1.37441 0.427423 -1.06067 -10.2969 0.380327 -1.07846 -32.83 0.726426 -0.883196 -12.8174 0.726425 -0.883197 98.6128 -31.4597 -89.3129 8.66408 -31.2788 -51.8454 -54.6803 -5.92144 -69.1723 -7.95 -0.976066 9.63417 -85.3412 -26.7701 81.3348 -21.5333 19.217 -66.6429 40.7849 21.2324 -66.528 -17.496 0.190744 -6.47658 22.1006 -1.36288 13.0459 -1.10887 -5.94436 -12.4898 
-4.30169 35.9411 -10.971 166.679 -68.2592 164.393 166.923 74.3438 112.511 -151.863 19.484 1.62752 74.8368 10.0332 2.93178 61.2293 -2.11302 8.97472 -164.151 70.9912 44.8877 -151.725 -30.3928 -2.43435 78.9269 -19.9789 -9.04791 62.5135 -8.33694 0.251205 0.243738 12.8485 -90.5541 1.17673 0.2765 -1.07008 -10.4946 0.229138 -1.08122 -33.0272 0.585309 -0.937537 -13.0145 0.585308 -0.937538 99.0005 -30.4743 -88.6292 8.92523 -31.8676 -52.4664 -55.9324 -5.35287 -69.6246 -7.46524 -0.912341 9.62386 -84.7991 -25.8469 82.2372 -22.0661 19.7191 -66.946 41.4188 20.3279 -67.3712 -18.8578 0.186344 -6.3062 20.5239 -1.52258 13.4646 0.368368 -6.23121 -12.8691 
-4.06872 35.8071 -11.179 161.713 -67.8198 159.709 168.362 75.4044 108.829 -151.96 19.2487 1.60874 74.7475 10.8766 4.93154 61.2271 -2.0965 9.071 -163.882 69.9189 42.7252 -151.779 -29.7694 -2.44816 81.8675 -20.5625 -5.91387 59.8444 -7.78028 -0.328602 0.0691613 12.8611 -90.645 1.14932 -0.106113 -1.25982 -10.5222 -0.161465 -1.25394 -33.0526 0.277382 -1.23348 -13.04 0.277378 -1.23348 99.223 -30.0189 -88.2181 9.01985 -32.4095 -52.7768 -56.8926 -4.27976 -70.0452 -7.30117 -0.867759 9.22903 -84.4351 -24.9579 82.7955 -23.0904 20.1013 -66.5608 44.8182 19.2274 -70.0535 -23.1956 0.465524 -7.39546 18.8688 -1.72039 13.6265 1.92411 -6.44179 -12.6374 
-4.43219 35.9309 -11.4742 167.273 -68.2058 164.811 170.137 74.4651 109.484 -151.641 19.5902 1.72905 75.4052 11.2148 4.81601 60.7028 -2.05742 9.19025 -156.422 69.0384 38.4815 -151.619 -27.5313 -2.32599 85.6059 -17.6428 2.89639 52.674 -6.2315 -2.56256 0.285135 12.9292 -90.5387 1.01567 0.365676 -1.03609 -10.6556 0.319725 -1.05118 -33.1887 0.660149 -0.878308 -13.176 0.660143 -0.878316 99.3654 -29.6491 -87.9583 9.47271 -33.1339 -52.5847 -58.022 -3.06774 -70.6127 -8.53789 -1.01983 9.18059 -84.1979 -24.1317 83.1138 -24.2805 20.5471 -66.0136 44.3792 17.0048 -70.972 -21.0505 0.10651 -5.58234 18.0187 -1.89796 14.1066 1.77599 -6.68896 -13.5321 
